<svg width="380" height="202" viewBox="0 0 380 202" xmlns="http://www.w3.org/2000/svg">
  <rect x="1" y="1" rx="10" width="378" height="200" fill="#1d2021" stroke="#504945" stroke-width="1"/>
  <text x="25" y="38" font-family="Segoe UI, sans-serif" font-size="19" font-weight="700" fill="#fe8019">Most Used Languages</text>
  <rect x="25" y="55" width="330" height="10" rx="5" fill="#3c3836"/>
  <rect x="25.0" y="55" width="253.9" height="10" fill="#3178c6"/><rect x="278.9" y="55" width="51.1" height="10" fill="#b07219"/><rect x="330.0" y="55" width="7.9" height="10" fill="#f1e05a"/><rect x="337.9" y="55" width="6.9" height="10" fill="#8b8b8b"/><rect x="344.8" y="55" width="6.4" height="10" fill="#3572A5"/><rect x="351.1" y="55" width="2.7" height="10" fill="#563d7c"/><rect x="353.9" y="55" width="1.1" height="10" fill="#8b8b8b"/>
  
    <circle cx="25" cy="96" r="5" fill="#3178c6"/>
    <text x="39" y="100" font-family="Segoe UI, sans-serif" font-size="13" fill="#ebdbb2">TypeScript 76.93%</text>
    <circle cx="200" cy="96" r="5" fill="#b07219"/>
    <text x="214" y="100" font-family="Segoe UI, sans-serif" font-size="13" fill="#ebdbb2">Java 15.48%</text>
    <circle cx="25" cy="120" r="5" fill="#f1e05a"/>
    <text x="39" y="124" font-family="Segoe UI, sans-serif" font-size="13" fill="#ebdbb2">JavaScript 2.41%</text>
    <circle cx="200" cy="120" r="5" fill="#8b8b8b"/>
    <text x="214" y="124" font-family="Segoe UI, sans-serif" font-size="13" fill="#ebdbb2">PLpgSQL 2.08%</text>
    <circle cx="25" cy="144" r="5" fill="#3572A5"/>
    <text x="39" y="148" font-family="Segoe UI, sans-serif" font-size="13" fill="#ebdbb2">Python 1.93%</text>
    <circle cx="200" cy="144" r="5" fill="#563d7c"/>
    <text x="214" y="148" font-family="Segoe UI, sans-serif" font-size="13" fill="#ebdbb2">CSS 0.83%</text>
    <circle cx="25" cy="168" r="5" fill="#8b8b8b"/>
    <text x="39" y="172" font-family="Segoe UI, sans-serif" font-size="13" fill="#ebdbb2">Other 0.34%</text>
</svg>
